<svg xmlns="http://www.w3.org/2000/svg" viewBox="0 0 482.38 265.84"><defs><style>.a{font-size:79.39px;fill:#1d1d1b;font-family:Rift-Bold, Rift;font-weight:700;}.b{letter-spacing:0em;}.c{letter-spacing:0em;}</style></defs><title>logo APTMonster</title><path d="M740,510v20H700a80,80,0,0,1-80-80V370h20v40h40v20H640v20a60,60,0,0,0,60,60Z" transform="translate(-260 -370)"/><path d="M520,370a79.78,79.78,0,0,0-60,27.09V370H440V610h20V502.91A80,80,0,1,0,520,370Zm-60,80a60,60,0,0,1,106.12-38.39L460,450.23Zm84.58-15.65q-3.84,8.41-7.7,16.82l-11.23,24.09a36.06,36.06,0,0,1-35.84-8.52,19.94,19.94,0,0,0,13.11-.2l6-12.82,3.51-7.66ZM520,510a60,60,0,0,1-59.07-49.46L473.52,456a44.09,44.09,0,0,0,41.39,29,43.62,43.62,0,0,0,15-2.66l1.55-.56,12.67-27.16q5.77-12.58,11.53-25.18l1.8-4,9.44-3.43,4.34-1.58.79-.29A60,60,0,0,1,520,510Z" transform="translate(-260 -370)"/><path d="M590,630" transform="translate(-260 -370)"/><path d="M313.52,440" transform="translate(-260 -370)"/><path d="M331.45,478.49l-12-25.63q-5.85-12.76-11.69-25.54Z" transform="translate(-260 -370)"/><path d="M400,370v27.09a80,80,0,1,0,0,105.82V530h20V370Zm-60,20a60,60,0,0,1,60,60v.23L293.88,411.61A59.87,59.87,0,0,1,340,390Zm30.19,76.74a36.05,36.05,0,0,1-35.84,8.52l-11.22-24.07q-3.87-8.42-7.71-16.84l32.17,11.71,3.51,7.66,6,12.82A19.94,19.94,0,0,0,370.19,466.74ZM340,510a60,60,0,0,1-52-89.9l.78.29,7.11,2.58,6.67,2.43,1.8,4q5.76,12.58,11.54,25.2l12.65,27.14,1.56.56A44,44,0,0,0,386.47,456l12.6,4.58A60,60,0,0,1,340,510Z" transform="translate(-260 -370)"/><text class="a" transform="translate(200 239.48)">MON<tspan class="b" x="120.35" y="0">S</tspan><tspan x="153.22" y="0">TE</tspan><tspan class="b" x="213.71" y="0">R</tspan><tspan class="c" x="249.2" y="0">S</tspan></text></svg>